Coordinates
version=1
nRows=17
nColumns=40
inDegrees=yes

Units are S.I. units (second, meters, Newtons, ...)
If the header above contains a line with 'inDegrees', this indicates whether rotational values are in degrees (yes) or radians (no).

endheader
time	pelvis_tilt	pelvis_list	pelvis_rotation	pelvis_tx	pelvis_ty	pelvis_tz	hip_flexion_r	hip_adduction_r	hip_rotation_r	knee_angle_r	knee_angle_r_beta	ankle_angle_r	subtalar_angle_r	mtp_angle_r	hip_flexion_l	hip_adduction_l	hip_rotation_l	knee_angle_l	knee_angle_l_beta	ankle_angle_l	subtalar_angle_l	mtp_angle_l	lumbar_extension	lumbar_bending	lumbar_rotation	arm_flex_r	arm_add_r	arm_rot_r	elbow_flex_r	pro_sup_r	wrist_flex_r	wrist_dev_r	arm_flex_l	arm_add_l	arm_rot_l	elbow_flex_l	pro_sup_l	wrist_flex_l	wrist_dev_l
      1.40000000	     10.35981655	      9.40099661	      2.05270006	     -0.36291356	      1.05432209	     -0.74782438	     10.23405591	     -8.34096159	     -9.65519774	     40.68200720	      0.71003497	      6.98334685	      0.00000000	      0.00000000	     44.35509464	      4.15869438	     -0.59910868	      9.59326750	      0.16743410	    -11.06757618	      0.00000000	      0.00000000	    -18.76918129	     -3.68173099	      1.33228002	     89.93522677	    -18.08183253	     28.88410474	     34.72583766	     82.65065664	      0.00000000	      0.00000000	     89.93234041	    -10.87486116	     29.09398281	     36.15809333	     83.37441866	      0.00000000	      0.00000000
      1.40500000	     10.37612334	      9.36470208	      2.04234687	     -0.36318696	      1.05403990	     -0.74775128	     10.26468332	     -8.30616173	     -9.64943514	     40.74751220	      0.71117825	      7.02404889	      0.00000000	      0.00000000	     44.39618219	      4.12576739	     -0.55372788	      9.59670469	      0.16749409	    -11.05941557	      0.00000000	      0.00000000	    -18.82268769	     -3.65139322	      1.35548584	     89.93550053	    -18.09216124	     28.75361972	     34.74918797	     82.44184738	      0.00000000	      0.00000000	     89.93222603	    -10.85710083	     29.01220216	     36.16505190	     83.32811663	      0.00000000	      0.00000000
      1.41000000	     10.33447797	      9.35509581	      1.97618815	     -0.36345200	      1.05363170	     -0.74764227	     10.40375091	     -8.30310763	     -9.60019202	     40.87576399	      0.71341667	      7.04706720	      0.00000000	      0.00000000	     44.47301159	      4.07763772	     -0.63336932	      9.52155554	      0.16618249	    -11.06553312	      0.00000000	      0.00000000	    -18.82462398	     -3.66321400	      1.41519124	     89.93556553	    -18.13277750	     28.76567403	     34.86693203	     82.55123570	      0.00000000	      0.00000000	     89.93261628	    -10.87246241	     28.93686823	     36.19774327	     83.42298515	      0.00000000	      0.00000000
      1.41500000	     10.33922874	      9.33632593	      1.96521440	     -0.36371809	      1.05325945	     -0.74758278	     10.46643886	     -8.30469503	     -9.65450150	     40.99812290	      0.71555223	      7.10737720	      0.00000000	      0.00000000	     44.52183381	      4.06110226	     -0.64102752	      9.49266888	      0.16567833	    -11.07916154	      0.00000000	      0.00000000	    -18.87011174	     -3.63498875	      1.40648437	     89.93589872	    -18.07764334	     28.61423544	     34.90753837	     82.52425115	      0.00000000	      0.00000000	     89.93258045	    -10.90368871	     28.86079392	     36.19434653	     83.46726653	      0.00000000	      0.00000000
      1.42000000	     10.32892276	      9.35500993	      1.95004140	     -0.36396099	      1.05278219	     -0.74760277	     10.56648506	     -8.35381327	     -9.64290843	     41.15448786	      0.71828132	      7.16788732	      0.00000000	      0.00000000	     44.58105657	      4.07816549	     -0.67936187	      9.45759835	      0.16506623	    -11.06727367	      0.00000000	      0.00000000	    -18.88383498	     -3.64859028	      1.40828598	     89.93585646	    -18.06672003	     28.51908080	     34.92655222	     82.48562112	      0.00000000	      0.00000000	     89.93287263	    -10.89250191	     28.78626007	     36.18620154	     83.40702958	      0.00000000	      0.00000000
      1.42500000	     10.32908398	      9.31517013	      1.95202874	     -0.36421179	      1.05236778	     -0.74761006	     10.63680507	     -8.33864322	     -9.68467955	     41.28547751	      0.72056752	      7.21035805	      0.00000000	      0.00000000	     44.63675734	      4.05407662	     -0.61350064	      9.45452660	      0.16501262	    -11.03324151	      0.00000000	      0.00000000	    -18.92297864	     -3.58820823	      1.40446969	     89.93605378	    -18.06219150	     28.44765488	     35.01454359	     82.44200174	      0.00000000	      0.00000000	     89.93295954	    -10.91362303	     28.68952692	     36.19593946	     83.41332406	      0.00000000	      0.00000000
      1.43000000	     10.33312868	      9.29429017	      1.93739885	     -0.36449512	      1.05195565	     -0.74755157	     10.71123186	     -8.34016122	     -9.68759963	     41.41083858	      0.72275548	      7.26522978	      0.00000000	      0.00000000	     44.68446871	      4.03201374	     -0.61089704	      9.43045032	      0.16459241	    -11.03674235	      0.00000000	      0.00000000	    -18.97860180	     -3.56188936	      1.38689195	     89.93617241	    -17.98589316	     28.20637488	     35.02472327	     82.52863738	      0.00000000	      0.00000000	     89.93318531	    -10.98677635	     28.73595282	     36.30917056	     83.27290167	      0.00000000	      0.00000000
      1.43500000	     10.32613377	      9.25592671	      1.91476959	     -0.36469637	      1.05156752	     -0.74756599	     10.78740883	     -8.32330695	     -9.68494880	     41.52324589	      0.72471736	      7.30733649	      0.00000000	      0.00000000	     44.72570230	      4.00879877	     -0.54337112	      9.37304333	      0.16359047	    -11.08754247	      0.00000000	      0.00000000	    -18.99012158	     -3.52061564	      1.43687297	     89.93664312	    -18.05137572	     28.24639467	     35.07313259	     82.52271367	      0.00000000	      0.00000000	     89.93298332	    -10.91085852	     28.57973593	     36.16917926	     83.29158181	      0.00000000	      0.00000000
      1.44000000	     10.37846133	      9.25505730	      1.89124646	     -0.36494619	      1.05122260	     -0.74759068	     10.80476036	     -8.36474992	     -9.75801742	     41.66491602	      0.72718997	      7.34455938	      0.00000000	      0.00000000	     44.72465720	      4.01346917	     -0.59490806	      9.35832431	      0.16333357	    -11.07123357	      0.00000000	      0.00000000	    -19.08024103	     -3.51000121	      1.43413095	     89.93676689	    -18.03332730	     28.15130679	     35.11915840	     82.57386038	      0.00000000	      0.00000000	     89.93306084	    -10.94467633	     28.64679908	     36.16314950	     83.23853506	      0.00000000	      0.00000000
      1.44500000	     10.35934424	      9.26792603	      1.84808005	     -0.36524113	      1.05066766	     -0.74749807	     10.95176589	     -8.41122951	     -9.73139184	     41.88544071	      0.73103885	      7.40558462	      0.00000000	      0.00000000	     44.80012148	      3.99416662	     -0.65808006	      9.34788683	      0.16315140	    -11.09911853	      0.00000000	      0.00000000	    -19.09641594	     -3.51464182	      1.44854710	     89.93683637	    -17.98099050	     28.01110570	     35.13900340	     82.56901396	      0.00000000	      0.00000000	     89.93325077	    -10.99951481	     28.58685686	     36.22832606	     83.31600565	      0.00000000	      0.00000000
      1.45000000	     10.39364685	      9.25785429	      1.82147390	     -0.36547329	      1.05013261	     -0.74746581	     11.02291598	     -8.44594658	     -9.75967649	     42.09175575	      0.73463973	      7.46802250	      0.00000000	      0.00000000	     44.80917733	      3.97910569	     -0.62485862	      9.31396352	      0.16255933	    -11.09423303	      0.00000000	      0.00000000	    -19.15762474	     -3.49152965	      1.44553519	     89.93679501	    -17.92718392	     27.91237280	     35.16511831	     82.58608721	      0.00000000	      0.00000000	     89.93346254	    -11.03167347	     28.54656886	     36.21827617	     83.22575905	      0.00000000	      0.00000000
      1.45500000	     10.47240087	      9.23305124	      1.77733037	     -0.36571436	      1.04966929	     -0.74742437	     11.02554386	     -8.44587232	     -9.73850538	     42.23676585	      0.73717063	      7.46043482	      0.00000000	      0.00000000	     44.76674876	      3.94882024	     -0.57148909	      9.30237007	      0.16235699	    -10.76625908	      0.00000000	      0.00000000	    -19.25078031	     -3.46737978	      1.46752756	     89.93725008	    -17.84283113	     29.35273184	     35.33784445	     69.92351610	      0.00000000	      0.00000000	     89.93321694	    -10.92777215	     29.89449522	     36.32555247	     70.10879274	      0.00000000	      0.00000000
      1.46000000	     10.36213491	      9.16891096	      1.83577679	     -0.36595039	      1.04904237	     -0.74756579	     11.23773287	     -8.46865630	     -9.93751467	     42.43699342	      0.74066526	      7.54132223	      0.00000000	      0.00000000	     44.96802829	      3.93881409	     -0.58580357	      9.32636354	      0.16277575	    -11.11693094	      0.00000000	      0.00000000	    -19.19073357	     -3.36841606	      1.45390337	     89.93734166	    -17.95476035	     27.76292357	     35.31201514	     82.59486145	      0.00000000	      0.00000000	     89.93349567	    -11.00714676	     28.43623767	     36.17475410	     83.26657919	      0.00000000	      0.00000000
      1.46500000	     10.42538676	      9.07821264	      1.84798984	     -0.36615193	      1.04864161	     -0.74755093	     11.24038268	     -8.42703324	    -10.06726860	     42.58252394	      0.74320525	      7.53300398	      0.00000000	      0.00000000	     44.94812602	      3.88852744	     -0.47193833	      9.30880785	      0.16246935	    -11.11985398	      0.00000000	      0.00000000	    -19.30365436	     -3.25447970	      1.44416627	     89.93752145	    -17.93268294	     27.67433087	     35.36830105	     82.46043104	      0.00000000	      0.00000000	     89.93353061	    -11.02908845	     28.35102383	     36.20825404	     83.28797948	      0.00000000	      0.00000000
      1.47000000	     10.45938871	      9.07856460	      1.82168306	     -0.36633002	      1.04810234	     -0.74759305	     11.29537791	     -8.49253790	    -10.16064957	     42.76810786	      0.74644430	      7.60650073	      0.00000000	      0.00000000	     44.96761274	      3.88806119	     -0.52460042	      9.31704777	      0.16261316	    -11.12977859	      0.00000000	      0.00000000	    -19.36323837	     -3.23325365	      1.42686703	     89.93779491	    -17.89608929	     27.65950479	     35.43082627	     82.39209474	      0.00000000	      0.00000000	     89.93353201	    -11.09116152	     28.38738653	     36.22456306	     83.31645132	      0.00000000	      0.00000000
      1.47500000	     10.50634851	      9.02627860	      1.82849028	     -0.36653749	      1.04753177	     -0.74762421	     11.33420025	     -8.50755594	    -10.31254984	     42.95402980	      0.74968925	      7.70032603	      0.00000000	      0.00000000	     44.97028606	      3.86358146	     -0.45093285	      9.31700063	      0.16261234	    -11.07883664	      0.00000000	      0.00000000	    -19.43147607	     -3.15832610	      1.46040831	     89.93803436	    -17.94441176	     27.65803544	     35.45626143	     82.37011460	      0.00000000	      0.00000000	     89.93373031	    -11.01216774	     28.26261276	     36.15736222	     83.36380776	      0.00000000	      0.00000000
      1.48000000	     10.50860740	      8.95984950	      1.80653693	     -0.36672301	      1.04686696	     -0.74763484	     11.43046262	     -8.50344185	    -10.42037921	     43.16139976	      0.75330854	      7.76322302	      0.00000000	      0.00000000	     45.02391443	      3.80514784	     -0.40461690	      9.31028629	      0.16249515	    -11.06072025	      0.00000000	      0.00000000	    -19.44986020	     -3.07771960	      1.49089356	     89.93818426	    -17.93437675	     27.59553270	     35.49585898	     82.30016088	      0.00000000	      0.00000000	     89.93381937	    -11.02485599	     28.27155384	     36.13633292	     83.42668315	      0.00000000	      0.00000000
